<?xml version="1.0" encoding="UTF-8"?>
<svg id="Layer_1" xmlns="http://www.w3.org/2000/svg" version="1.1" viewBox="0 0 16 16">
  <!-- Generator: Adobe Illustrator 29.5.1, SVG Export Plug-In . SVG Version: 2.1.0 Build 141)  -->
  <defs>
    <style>
      .st0 {
        fill: #fc7f7f;
      }
    </style>
  </defs>
  <path class="st0" d="M10.722,1.875h-5.445c-1.503,0-2.722,1.219-2.722,2.722v.681c1.879,0,3.403,1.524,3.403,3.403h4.083c0-1.879,1.524-3.403,3.403-3.403v-.681c0-1.503-1.219-2.722-2.722-2.722ZM13.445,6.639c-1.128,0-2.042.914-2.042,2.042v2.042h-1.361v-.681h-4.083v.681h-1.361v-2.042c0-1.128-.914-2.042-2.042-2.042s-2.042.914-2.042,2.042c0,.889.568,1.645,1.361,1.926v3.519h1.361v-.681h9.528v.681h1.361v-3.519c.793-.28,1.361-1.037,1.361-1.926,0-1.128-.914-2.042-2.042-2.042Z"/>
</svg>