<?xml version="1.0" encoding="UTF-8"?><svg id="Layer_1" xmlns="http://www.w3.org/2000/svg" width="15.987" height="15.987" viewBox="0 0 15.987 15.987"><defs><style>.cls-1{fill:#fc7f7f;stroke-width:0px;}</style></defs><path class="cls-1" d="M10.086,1.717h-4.184c-2.078,0-3.802,1.515-4.129,3.5.096-.009.194-.014.293-.014,1.733,0,3.138,1.405,3.138,3.138v1.046h5.579v-1.046c0-1.733,1.405-3.138,3.138-3.138.099,0,.197.005.293.014-.326-1.986-2.051-3.5-4.129-3.5ZM14.27,6.634c-.113-.023-.229-.035-.349-.035-.963,0-1.743.781-1.743,1.743v3.138h-1.395v-.697h-5.579v.697h-1.395v-3.138c0-.963-.781-1.743-1.743-1.743-.119,0-.236.012-.349.035-.796.162-1.395.865-1.395,1.709,0,.41.127.724.272,1.085.196.485.425,1.053.425,2.053v2.092c0,.385.312.697.697.697h12.553c.385,0,.697-.312.697-.697v-2.092c0-1,.229-1.569.425-2.053.145-.36.272-.674.272-1.085,0-.843-.599-1.547-1.395-1.709Z"/></svg>