<?xml version="1.0" encoding="UTF-8"?>
<svg id="Layer_1" xmlns="http://www.w3.org/2000/svg" version="1.1" viewBox="0 0 16 16">
  <!-- Generator: Adobe Illustrator 29.5.1, SVG Export Plug-In . SVG Version: 2.1.0 Build 141)  -->
  <defs>
    <style>
      .st0 {
        fill: #fc7f7f;
      }
    </style>
  </defs>
  <path class="st0" d="M15.577,11.488h-2.253v-2.253c0-.136-.111-.247-.247-.247h-1.295c-.136,0-.247.111-.247.247v2.253h-2.253c-.136,0-.247.111-.247.247v1.295c0,.136.111.247.247.247h2.253v2.253c0,.136.111.247.247.247h1.295c.136,0,.247-.111.247-.247v-2.253h2.253c.136,0,.247-.111.247-.247v-1.295c0-.136-.111-.247-.247-.247Z"/>
  <g>
    <path class="st0" d="M8.036,13.029v-1.295c0-.688.559-1.247,1.246-1.247h.759v-.446h-4.083v.681h-1.361v-2.042c0-1.128-.914-2.042-2.042-2.042s-2.042.914-2.042,2.042c0,.889.568,1.645,1.361,1.926v3.519h1.361v-.681h4.884c-.047-.131-.084-.268-.084-.415Z"/>
    <path class="st0" d="M11.515,8.042c.089-.02.173-.054.267-.054h1.295c.688,0,1.247.559,1.247,1.247v1.253h.022c.669-.335,1.14-1.008,1.14-1.807,0-1.128-.914-2.042-2.042-2.042-.903,0-1.661.59-1.93,1.403Z"/>
    <path class="st0" d="M5.958,8.681h4.083c0-1.879,1.524-3.403,3.403-3.403v-.681c0-1.503-1.219-2.722-2.722-2.722h-5.445c-1.503,0-2.722,1.219-2.722,2.722v.681c1.879,0,3.403,1.524,3.403,3.403Z"/>
  </g>
</svg>